<?xml version="1.0" encoding="UTF-8" standalone="no"?>
<svg
   width="93.815865mm"
   height="67.697678mm"
   viewBox="0 0 93.81586 67.697677"
   version="1.1"
   id="svg5"
   xmlns="http://www.w3.org/2000/svg"
   xmlns:svg="http://www.w3.org/2000/svg">
  <defs
     id="defs2" />
  <g
     id="cevapi"
     transform="rotate(36.872614,93.623034,226.44066)">
    <g
       id="g475"
       transform="translate(-98.228521,69.355422)">
      <path
         id="rect234"
         style="fill:#60311c;fill-opacity:1;stroke-width:0.222015;stroke-dasharray:none"
         d="M 23.496953,2.5178267 V 82.511911 c 5.479465,-0.06928 9.870715,-4.500308 9.870715,-9.996806 V 12.51515 c 0,-5.4964983 -4.39125,-9.9280453 -9.870715,-9.9973233 z" />
      <path
         id="path6276"
         style="fill:#784428;fill-opacity:1;stroke-width:0.222015;stroke-dasharray:none"
         d="m 13.896505,72.515105 c 0,5.539995 4.459912,9.999907 9.999907,9.999907 0.0435,0 0.08635,-0.0025 0.129708,-0.0031 V 2.5178277 c -0.04336,-5.47e-4 -0.08621,-0.0031 -0.129708,-0.0031 -5.539995,0 -9.999907,4.460429 -9.999907,10.0004233 z" />
      <rect
         style="fill:#341f1d;fill-opacity:1;stroke:none;stroke-width:0.259;stroke-dasharray:none;stroke-opacity:1"
         id="rect7057"
         width="4.5778489"
         height="14.60023"
         x="-77.982727"
         y="-6.2745457"
         ry="2.2889245"
         transform="rotate(-107.13653)" />
      <rect
         style="fill:#341f1d;fill-opacity:1;stroke:none;stroke-width:0.259;stroke-dasharray:none;stroke-opacity:1"
         id="rect7057-5"
         width="4.5778489"
         height="14.60023"
         x="-67.494331"
         y="-3.040575"
         ry="2.2889245"
         transform="rotate(-107.13653)" />
      <rect
         style="fill:#341f1d;fill-opacity:1;stroke:none;stroke-width:0.259;stroke-dasharray:none;stroke-opacity:1"
         id="rect7057-6"
         width="4.5778489"
         height="14.60023"
         x="-57.005939"
         y="0.19339938"
         ry="2.2889245"
         transform="rotate(-107.13653)" />
      <rect
         style="fill:#341f1d;fill-opacity:1;stroke:none;stroke-width:0.259;stroke-dasharray:none;stroke-opacity:1"
         id="rect7057-2"
         width="4.5778489"
         height="14.60023"
         x="-36.029148"
         y="6.6613426"
         ry="2.2889245"
         transform="rotate(-107.13653)" />
      <rect
         style="fill:#341f1d;fill-opacity:1;stroke:none;stroke-width:0.259;stroke-dasharray:none;stroke-opacity:1"
         id="rect7057-9"
         width="4.5778489"
         height="14.60023"
         x="-46.517544"
         y="3.427372"
         ry="2.2889245"
         transform="rotate(-107.13653)" />
      <rect
         style="fill:#341f1d;fill-opacity:1;stroke:none;stroke-width:0.259;stroke-dasharray:none;stroke-opacity:1"
         id="rect7057-1"
         width="4.5778489"
         height="14.60023"
         x="-25.540754"
         y="9.8953171"
         ry="2.2889245"
         transform="rotate(-107.13653)" />
    </g>
    <g
       id="g475-9"
       transform="translate(-67.654198,46.422415)">
      <path
         id="rect234-1"
         style="fill:#60311c;fill-opacity:1;stroke-width:0.222015;stroke-dasharray:none"
         d="M 23.496953,2.5178267 V 82.511911 c 5.479465,-0.06928 9.870715,-4.500308 9.870715,-9.996806 V 12.51515 c 0,-5.4964983 -4.39125,-9.9280453 -9.870715,-9.9973233 z" />
      <path
         id="path6276-2"
         style="fill:#784428;fill-opacity:1;stroke-width:0.222015;stroke-dasharray:none"
         d="m 13.896505,72.515105 c 0,5.539995 4.459912,9.999907 9.999907,9.999907 0.0435,0 0.08635,-0.0025 0.129708,-0.0031 V 2.5178277 c -0.04336,-5.47e-4 -0.08621,-0.0031 -0.129708,-0.0031 -5.539995,0 -9.999907,4.460429 -9.999907,10.0004233 z" />
      <rect
         style="fill:#341f1d;fill-opacity:1;stroke:none;stroke-width:0.259;stroke-dasharray:none;stroke-opacity:1"
         id="rect7057-7"
         width="4.5778489"
         height="14.60023"
         x="-77.982727"
         y="-6.2745457"
         ry="2.2889245"
         transform="rotate(-107.13653)" />
      <rect
         style="fill:#341f1d;fill-opacity:1;stroke:none;stroke-width:0.259;stroke-dasharray:none;stroke-opacity:1"
         id="rect7057-5-0"
         width="4.5778489"
         height="14.60023"
         x="-67.494331"
         y="-3.040575"
         ry="2.2889245"
         transform="rotate(-107.13653)" />
      <rect
         style="fill:#341f1d;fill-opacity:1;stroke:none;stroke-width:0.259;stroke-dasharray:none;stroke-opacity:1"
         id="rect7057-6-9"
         width="4.5778489"
         height="14.60023"
         x="-57.005939"
         y="0.19339938"
         ry="2.2889245"
         transform="rotate(-107.13653)" />
      <rect
         style="fill:#341f1d;fill-opacity:1;stroke:none;stroke-width:0.259;stroke-dasharray:none;stroke-opacity:1"
         id="rect7057-2-3"
         width="4.5778489"
         height="14.60023"
         x="-36.029148"
         y="6.6613426"
         ry="2.2889245"
         transform="rotate(-107.13653)" />
      <rect
         style="fill:#341f1d;fill-opacity:1;stroke:none;stroke-width:0.259;stroke-dasharray:none;stroke-opacity:1"
         id="rect7057-9-6"
         width="4.5778489"
         height="14.60023"
         x="-46.517544"
         y="3.427372"
         ry="2.2889245"
         transform="rotate(-107.13653)" />
      <rect
         style="fill:#341f1d;fill-opacity:1;stroke:none;stroke-width:0.259;stroke-dasharray:none;stroke-opacity:1"
         id="rect7057-1-0"
         width="4.5778489"
         height="14.60023"
         x="-25.540754"
         y="9.8953171"
         ry="2.2889245"
         transform="rotate(-107.13653)" />
    </g>
  </g>
</svg>
